<svg version="1.1" id="blue_x5F_bg" xmlns="http://www.w3.org/2000/svg" xmlns:xlink="http://www.w3.org/1999/xlink" x="0px"
	 y="0px" viewBox="0 0 121.1 121.1" style="enable-background:new 0 0 121.1 121.1;" xml:space="preserve">
<style type="text/css">
	.st0{fill:#FFFFFF;}
</style>
<g>
	<g id="Rounded_Rectangle_1_1_">
		<path class="st0" d="M93.8,3.2C107.2,3.2,118,14,118,27.3v66.6c0,13.3-10.8,24.2-24.2,24.2H27.2C13.9,118.1,3,107.3,3,93.9V27.3
			C3.1,14,13.9,3.2,27.2,3.2H93.8 M93.8,0.2H27.2C12.2,0.2,0,12.4,0,27.4V94c0,15,12.2,27.2,27.2,27.2h66.6
			c15,0,27.2-12.2,27.2-27.2V27.3C121,12.3,108.8,0.2,93.8,0.2L93.8,0.2z"/>
	</g>
	<g>
		<path class="st0" d="M90.8,55c0.1,0,0.2,0,0.3,0C91,55.1,90.9,55,90.8,55c-5,0-9.3,4-9.7,8.8L79,93.3c-0.1,1.5,1,2.8,2.6,2.8
			c-0.1,0-0.2,0-0.3,0c0.1,0,0.3,0,0.4,0c4.9,0,9.2-4,9.6-8.8l2.1-29.4C93.5,56.3,92.4,55,90.8,55z"/>
		<ellipse class="st0" cx="89.8" cy="37.4" rx="7.4" ry="7.4"/>
		<g>
			<path class="st0" d="M51.1,25.2H40.8h-9c-1.5,0-2.9,1.3-3,2.8l-5,65.3c-0.1,1.4,0.9,2.6,2.3,2.8c0.1,0,0.3,0,0.4,0
				c4.9,0,9.1-4,9.5-8.8l1.4-15v-0.1l0,0v0.1c0.1-1.5,1.4-2.8,3-2.8H48c12.2,0,22.8-9.9,23.7-22.1C72.6,35.1,63.4,25.2,51.1,25.2z
				 M60,47.3c-0.4,5.7-5.4,10.4-11.1,10.4l0,0h-7.6c-1.5,0-2.7-1.3-2.6-2.8l0,0l0.9-13.4l0.1-1.7l0,0l0,0c0.1-1.5,1.4-2.8,3-2.8h7.6
				C56,37,60.4,41.6,60,47.3z"/>
			<path class="st0" d="M39.8,39.8L39.8,39.8L39.8,39.8z"/>
		</g>
	</g>
</g>
</svg>
